<mxfile host="app.diagrams.net" modified="2021-04-18T00:33:37.940Z" agent="5.0 (X11; CrOS aarch64 13729.56.0) AppleWebKit/537.36 (KHTML, like Gecko) Chrome/89.0.4389.95 Safari/537.36" etag="dHySyHbAjuoCIASuWzK6" version="14.6.1" type="github">
  <diagram id="7wLTs8ti_w2qS4k10klG" name="Page-1">
    <mxGraphModel dx="383" dy="265" grid="1" gridSize="10" guides="1" tooltips="1" connect="1" arrows="1" fold="1" page="1" pageScale="1" pageWidth="827" pageHeight="1169" math="0" shadow="0">
      <root>
        <mxCell id="0" />
        <mxCell id="1" parent="0" />
        <mxCell id="5V7owRSj-AME9JgfiHuK-16" value="光" style="edgeStyle=orthogonalEdgeStyle;rounded=0;orthogonalLoop=1;jettySize=auto;html=1;startArrow=none;startFill=0;" edge="1" parent="1" source="5V7owRSj-AME9JgfiHuK-1" target="5V7owRSj-AME9JgfiHuK-15">
          <mxGeometry relative="1" as="geometry" />
        </mxCell>
        <mxCell id="5V7owRSj-AME9JgfiHuK-1" value="L2 Switch" style="fontColor=#0066CC;verticalAlign=top;verticalLabelPosition=bottom;labelPosition=center;align=center;html=1;outlineConnect=0;fillColor=#CCCCCC;strokeColor=#6881B3;gradientColor=none;gradientDirection=north;strokeWidth=2;shape=mxgraph.networks.switch;" vertex="1" parent="1">
          <mxGeometry x="420" y="130" width="100" height="30" as="geometry" />
        </mxCell>
        <mxCell id="5V7owRSj-AME9JgfiHuK-12" value="RAG" style="edgeStyle=orthogonalEdgeStyle;rounded=0;orthogonalLoop=1;jettySize=auto;html=1;startArrow=classic;startFill=1;" edge="1" parent="1" source="5V7owRSj-AME9JgfiHuK-2">
          <mxGeometry relative="1" as="geometry">
            <mxPoint x="470" y="160" as="targetPoint" />
            <Array as="points">
              <mxPoint x="470" y="180" />
              <mxPoint x="470" y="180" />
            </Array>
          </mxGeometry>
        </mxCell>
        <mxCell id="5V7owRSj-AME9JgfiHuK-17" value="光" style="edgeStyle=orthogonalEdgeStyle;rounded=0;orthogonalLoop=1;jettySize=auto;html=1;startArrow=none;startFill=0;" edge="1" parent="1" source="5V7owRSj-AME9JgfiHuK-2" target="5V7owRSj-AME9JgfiHuK-15">
          <mxGeometry relative="1" as="geometry">
            <Array as="points">
              <mxPoint x="550" y="245" />
              <mxPoint x="550" y="160" />
            </Array>
          </mxGeometry>
        </mxCell>
        <mxCell id="5V7owRSj-AME9JgfiHuK-2" value="L2 Switch" style="fontColor=#0066CC;verticalAlign=top;verticalLabelPosition=bottom;labelPosition=center;align=center;html=1;outlineConnect=0;fillColor=#CCCCCC;strokeColor=#6881B3;gradientColor=none;gradientDirection=north;strokeWidth=2;shape=mxgraph.networks.switch;" vertex="1" parent="1">
          <mxGeometry x="420" y="230" width="100" height="30" as="geometry" />
        </mxCell>
        <mxCell id="5V7owRSj-AME9JgfiHuK-10" value="メタル" style="edgeStyle=orthogonalEdgeStyle;rounded=0;orthogonalLoop=1;jettySize=auto;html=1;" edge="1" parent="1" source="5V7owRSj-AME9JgfiHuK-4" target="5V7owRSj-AME9JgfiHuK-1">
          <mxGeometry relative="1" as="geometry" />
        </mxCell>
        <mxCell id="5V7owRSj-AME9JgfiHuK-4" value="ONU A" style="fontColor=#0066CC;verticalAlign=top;verticalLabelPosition=bottom;labelPosition=center;align=center;html=1;outlineConnect=0;fillColor=#CCCCCC;strokeColor=#6881B3;gradientColor=none;gradientDirection=north;strokeWidth=2;shape=mxgraph.networks.modem;" vertex="1" parent="1">
          <mxGeometry x="240" y="130" width="100" height="30" as="geometry" />
        </mxCell>
        <mxCell id="5V7owRSj-AME9JgfiHuK-11" value="メタル" style="edgeStyle=orthogonalEdgeStyle;rounded=0;orthogonalLoop=1;jettySize=auto;html=1;" edge="1" parent="1" source="5V7owRSj-AME9JgfiHuK-5" target="5V7owRSj-AME9JgfiHuK-2">
          <mxGeometry relative="1" as="geometry" />
        </mxCell>
        <mxCell id="5V7owRSj-AME9JgfiHuK-5" value="ONU B" style="fontColor=#0066CC;verticalAlign=top;verticalLabelPosition=bottom;labelPosition=center;align=center;html=1;outlineConnect=0;fillColor=#CCCCCC;strokeColor=#6881B3;gradientColor=none;gradientDirection=north;strokeWidth=2;shape=mxgraph.networks.modem;" vertex="1" parent="1">
          <mxGeometry x="240" y="230" width="100" height="30" as="geometry" />
        </mxCell>
        <mxCell id="5V7owRSj-AME9JgfiHuK-7" value="A系統回線" style="edgeStyle=orthogonalEdgeStyle;rounded=0;orthogonalLoop=1;jettySize=auto;html=1;" edge="1" parent="1" source="5V7owRSj-AME9JgfiHuK-6" target="5V7owRSj-AME9JgfiHuK-4">
          <mxGeometry relative="1" as="geometry" />
        </mxCell>
        <mxCell id="5V7owRSj-AME9JgfiHuK-13" value="B系統回線" style="edgeStyle=orthogonalEdgeStyle;rounded=0;orthogonalLoop=1;jettySize=auto;html=1;startArrow=none;startFill=0;" edge="1" parent="1" source="5V7owRSj-AME9JgfiHuK-6" target="5V7owRSj-AME9JgfiHuK-5">
          <mxGeometry x="0.5652" relative="1" as="geometry">
            <Array as="points">
              <mxPoint x="85" y="245" />
            </Array>
            <mxPoint as="offset" />
          </mxGeometry>
        </mxCell>
        <mxCell id="5V7owRSj-AME9JgfiHuK-6" value="ISP A" style="html=1;outlineConnect=0;fillColor=#CCCCCC;strokeColor=#6881B3;gradientColor=none;gradientDirection=north;strokeWidth=2;shape=mxgraph.networks.cloud;fontColor=#ffffff;" vertex="1" parent="1">
          <mxGeometry x="40" y="120" width="90" height="50" as="geometry" />
        </mxCell>
        <mxCell id="5V7owRSj-AME9JgfiHuK-19" style="edgeStyle=orthogonalEdgeStyle;rounded=0;orthogonalLoop=1;jettySize=auto;html=1;startArrow=none;startFill=0;" edge="1" parent="1" source="5V7owRSj-AME9JgfiHuK-15" target="5V7owRSj-AME9JgfiHuK-18">
          <mxGeometry relative="1" as="geometry" />
        </mxCell>
        <mxCell id="5V7owRSj-AME9JgfiHuK-15" value="patch panel" style="fontColor=#0066CC;verticalAlign=top;verticalLabelPosition=bottom;labelPosition=center;align=center;html=1;outlineConnect=0;fillColor=#CCCCCC;strokeColor=#6881B3;gradientColor=none;gradientDirection=north;strokeWidth=2;shape=mxgraph.networks.patch_panel;" vertex="1" parent="1">
          <mxGeometry x="570" y="127.5" width="100" height="35" as="geometry" />
        </mxCell>
        <mxCell id="5V7owRSj-AME9JgfiHuK-18" value="Firewall" style="fontColor=#0066CC;verticalAlign=top;verticalLabelPosition=bottom;labelPosition=center;align=center;html=1;outlineConnect=0;fillColor=#CCCCCC;strokeColor=#6881B3;gradientColor=none;gradientDirection=north;strokeWidth=2;shape=mxgraph.networks.firewall;" vertex="1" parent="1">
          <mxGeometry x="710" y="95" width="100" height="100" as="geometry" />
        </mxCell>
      </root>
    </mxGraphModel>
  </diagram>
</mxfile>
